<svg width="500" height="500" viewBox="0 0 500 500" fill="none" xmlns="http://www.w3.org/2000/svg">
<rect width="500" height="500" fill="white"/>
<rect width="500" height="500" fill="#81B29A"/>
<path d="M322.8 118H177.2C167.19 118 159.091 126.37 159.091 136.6L159 304L195.4 266.8H322.8C332.81 266.8 341 258.43 341 248.2V136.6C341 126.37 332.81 118 322.8 118ZM322.8 248.2H187.847L182.478 253.687L177.2 259.081V136.6H322.8V248.2ZM195.4 211H213.6V229.6H195.4V211ZM195.4 183.1H213.6V201.7H195.4V183.1ZM195.4 155.2H213.6V173.8H195.4V155.2ZM231.8 211H277.3V229.6H231.8V211ZM231.8 183.1H304.6V201.7H231.8V183.1ZM231.8 155.2H304.6V173.8H231.8V155.2Z" fill="#F2CC8F"/>
<path d="M413.636 50H86.3636C66.3636 50 50 68 50 90V330C50 352 66.3636 370 86.3636 370H213.636V410H177.273V450H322.727V410H286.364V370H413.636C433.636 370 450 352 450 330V90C450 68 433.636 50 413.636 50ZM413.636 330H86.3636V90H413.636V330Z" fill="#3D405B"/>
</svg>
